<?xml version="1.0" standalone="no"?><!DOCTYPE svg PUBLIC "-//W3C//DTD SVG 1.1//EN" "http://www.w3.org/Graphics/SVG/1.1/DTD/svg11.dtd"><svg t="1606199663854" class="icon" viewBox="0 0 1024 1024" version="1.1" xmlns="http://www.w3.org/2000/svg" p-id="1377" width="32" height="32" xmlns:xlink="http://www.w3.org/1999/xlink"><defs><style type="text/css"></style></defs><path d="M1014.773003 260.306247c13.243928-13.283344 14.308172-23.019208-10.405943-23.019207h-199.762578c-20.181223 0-21.008969 0.630663-32.084992 11.706686l-181.473343 181.591593h231.650486c18.32865 0 24.950614-1.458409 35.947804-12.534432 11.036606-11.036606 142.884638-144.500712 156.128566-157.74464z" p-id="1378"></path><path d="M763.729622 9.262866c13.243928-13.204511 23.019208-14.308172 23.019207 10.405943v199.723161c0 20.181223-0.630663 21.048385-11.706686 32.124409l-181.591593 181.473343V201.299819c0-18.289234 1.458409-24.911198 12.534432-35.947804 11.036606-10.99719 144.500712-142.845221 157.74464-156.089149z" p-id="1379"></path><path d="M63.929937 651.553947a218.209477 218.209477 0 0 0-0.039416 308.551985 218.209477 218.209477 0 0 0 308.551984 0l273.195427-273.156011a218.17006 218.17006 0 1 0-308.551984-308.591401c-36.6573 36.736133-236.49871 236.538127-273.156011 273.195427z" p-id="1380"></path></svg>