<?xml version="1.0" standalone="no"?><!DOCTYPE svg PUBLIC "-//W3C//DTD SVG 1.1//EN" "http://www.w3.org/Graphics/SVG/1.1/DTD/svg11.dtd"><svg t="1606200014618" class="icon" viewBox="0 0 1426 1024" version="1.1" xmlns="http://www.w3.org/2000/svg" p-id="2183" width="44.5625" height="32" xmlns:xlink="http://www.w3.org/1999/xlink"><defs><style type="text/css"></style></defs><path d="M1425.792761 241.65868c17.364985 121.601894-226.059804 724.67437-395.596656 776.367325C860.738252 1069.70696 19.846983 771.740219 2.177998 636.516337-36.225969 342.715592 450.429609 36.430858 665.279422 3.881887c195.49783-29.619974 743.147354 116.172899 760.514339 237.775793z m-914.421205-35.312969c-66.027943 73.866936 224.663805 105.790908 259.395774 100.936912 34.80997-4.940996 150.04287-140.310878 125.949891-155.077865-17.931984-11.04999-144.911874-39.992965-208.169819-53.970953a88.574923 88.574923 0 0 0-70.08994 14.269987 621.65746 621.65746 0 0 0-107.077906 93.843919m389.108661 70.704938c-46.43796 75.656934 219.367809 140.233878 248.079785 142.856876 29.199975 2.668998 79.519931-46.21996 100.369912-65.892943 21.006982-19.704983 28.317975-49.239957 10.866991-76.969933-14.355988-22.90998-186.073838-83.167928-245.236787-103.39391a37.400967 37.400967 0 0 0-37.935967 8.629993c-18.124984 16.849985-47.402959 47.909958-76.133934 94.762917M861.911251 768.680222c24.501979 3.552997 49.089957-5.637995 66.909942-25.019978 44.807961-48.730958 130.171887-145.538874 161.563859-208.298819a35.166969 35.166969 0 0 0-6.395994-40.342965c-55.108952-52.910954-211.496816-84.779926-275.089761-95.875917a56.486951 56.486951 0 0 0-48.932958 15.639986C665.415422 505.156451 595.809482 568.866396 575.0895 636.903336c-6.714994 22.009981 4.150996 45.91996 23.76398 52.911954 61.275947 21.836981 199.958826 69.699939 263.057771 78.864932zM195.60483 457.396492C52.906954 600.120368 328.438715 638.622335 395.624656 634.593338c53.116954-3.147997 225.247804-201.805825 238.241793-241.23679 11.40299-34.32297-179.124844-85.223926-227.869802-97.644915a30.671973 30.671973 0 0 0-22.97098 3.229997c-23.05998 13.209989-81.446929 52.491954-187.405837 158.454862m0 0" p-id="2184"></path></svg>