<?xml version="1.0" standalone="no"?><!DOCTYPE svg PUBLIC "-//W3C//DTD SVG 1.1//EN" "http://www.w3.org/Graphics/SVG/1.1/DTD/svg11.dtd"><svg t="1606200146717" class="icon" viewBox="0 0 1024 1024" version="1.1" xmlns="http://www.w3.org/2000/svg" p-id="3906" width="32" height="32" xmlns:xlink="http://www.w3.org/1999/xlink"><defs><style type="text/css"></style></defs><path d="M980.139 781.141c0 59.222-97.622 62.72-218.027 62.72s-218.027-3.413-218.027-62.72 97.622-107.264 218.027-107.264 218.027 48.043 218.027 107.264z" fill="#55C179" p-id="3907"></path><path d="M936.363 716.63c1.365 4.863 2.133 9.813 2.133 14.933 0 59.221-97.621 62.72-218.027 62.72-72.448 0-136.704-1.28-176.298-15.19 0 0.683-0.086 1.366-0.086 2.048 0 59.222 97.622 62.72 218.027 62.72s218.027-3.413 218.027-62.72c0-24.234-16.299-46.506-43.776-64.512z" fill="#05A336" p-id="3908"></path><path d="M980.139 781.141c0-38.4-40.96-72.021-102.486-90.965-31.744-3.584-69.034-2.56-112.981 5.376l-0.597 22.272s87.552 4.437 134.314 25.685c22.102 9.984 56.747 39.68 70.486 66.987 7.338-7.85 11.264-17.493 11.264-29.355z" fill="#05A336" p-id="3909"></path><path d="M437.504 939.264c92.757 0 180.907-19.797 260.437-55.296 41.046-18.347 52.31-71.253 22.187-104.704-69.547-77.312-170.41-125.952-282.624-125.952s-213.077 48.64-282.624 125.952c-30.123 33.45-18.859 86.357 22.187 104.704 79.53 35.499 167.68 55.296 260.437 55.296z" fill="#55C179" p-id="3910"></path><path d="M456.107 692.395c-5.035-17.664-20.736-30.72-43.094-38.315-94.122 5.973-178.858 46.165-242.005 108.288 0.085 3.755 0.597 7.424 1.621 11.008 12.032 42.24 85.334 58.368 163.584 36.01 78.336-22.357 132.011-74.751 119.894-116.991z" fill="#7CE597" p-id="3911"></path><path d="M720.213 779.264a381.679 381.679 0 0 0-83.37-69.547c2.645 2.816 5.29 5.547 7.85 8.448 30.123 33.451 18.859 86.358-22.186 104.704-79.531 35.584-167.68 55.296-260.438 55.296-78.25 0-153.173-14.08-222.464-39.765a65.963 65.963 0 0 0 37.547 45.653c79.53 35.584 167.68 55.296 260.437 55.296s180.907-19.797 260.438-55.296c41.045-18.517 52.224-71.338 22.186-104.789z" fill="#05A336" p-id="3912"></path><path d="M292.693 400.128c-6.144 0-12.117 0.597-17.92 1.621-21.162-30.805-60.416-51.541-105.472-51.541-56.49 0-103.936 32.597-117.93 76.8C22.357 431.445 0 456.448 0 486.827a60.416 60.416 0 0 0 95.061 49.493c20.566 13.397 46.336 21.419 74.326 21.419 28.842 0 55.381-8.534 76.202-22.699 13.483 7.765 29.696 12.203 47.104 12.203 47.104 0 85.334-32.939 85.334-73.472 0-40.704-38.23-73.643-85.334-73.643z" fill="#FFE3E3" p-id="3913"></path><path d="M913.664 164.096c-3.84 0-7.68 0.341-11.264 1.024-13.312-19.37-38.059-32.427-66.39-32.427-35.583 0-65.45 20.48-74.24 48.384a37.982 37.982 0 0 0-32.34 37.632 38.042 38.042 0 0 0 59.903 31.147c12.971 8.448 29.184 13.483 46.763 13.483 18.176 0 34.816-5.376 48.043-14.336 8.533 4.864 18.688 7.68 29.696 7.68 29.696 0 53.76-20.736 53.76-46.251-0.171-25.6-24.235-46.336-53.931-46.336z" fill="#FF9797" p-id="3914"></path><path d="M720.213 779.264a385.45 385.45 0 0 0-73.728-63.488c-66.218-21.504-153.941-29.696-269.141-8.96l-0.939 36.523s143.446 7.338 220.16 42.069c37.632 16.981 76.459 54.187 97.024 100.352 1.451-0.597 2.902-1.195 4.267-1.877 41.216-18.347 52.395-71.168 22.357-104.619z m-42.837-326.741l11.179 10.325 47.872-6.059 8.277-12.8 11.179 10.326 60.416-7.68a143.343 143.343 0 0 0-109.568-31.659c-40.96 5.205-75.606 27.136-98.134 58.112l60.416-7.68 8.363-12.885z" fill="#05A336" p-id="3915"></path><path d="M816.555 445.867c26.282 122.794-42.155 203.69-77.398 236.032-10.154 9.386-7.253 26.197 5.547 31.402 14.25 5.718 33.365 8.79 54.101-0.512 24.406-10.922 33.366-37.034 40.96-60.586 7.595-23.552 11.862-48.128 12.374-72.875 0.768-36.01-6.4-72.107-20.736-105.13-4.182-9.643-8.79-19.542-14.848-28.331z" fill="#E59200" p-id="3916"></path><path d="M818.261 454.741c6.144 34.56 5.12 69.974-3.584 104.107-1.365 5.205-2.816 10.325-4.522 15.445a243.925 243.925 0 0 1-51.456 87.808c-4.694 5.12-9.558 10.07-14.507 15.019-4.096 4.01-8.619 7.51-10.325 13.227-2.816 9.216 1.962 19.37 10.922 22.954 3.499 1.366 7.254 2.646 11.35 3.584 20.309-23.978 39.594-48.042 53.333-77.056 18.859-40.021 27.392-84.48 22.955-128.597-2.219-22.101-7.51-43.861-15.19-64.597l-0.512-0.768c0.427 2.986 1.024 5.888 1.536 8.874z" fill="#FFB814" p-id="3917"></path><path d="M706.304 414.55c-40.96 5.205-75.605 27.135-98.133 58.111 22.528-30.976 57.173-34.986 98.133-40.192 40.96-5.205 80.043-10.581 109.568 13.739a143.343 143.343 0 0 0-109.568-31.659z" fill="#55C179" p-id="3918"></path><path d="M933.376 521.216l-14.933 3.328-38.4-29.184-0.768-15.275-14.934 3.328-48.469-36.864c37.717-6.314 77.824 2.39 110.677 27.307s51.883 61.355 55.894 99.413l-48.47-36.864-0.597-15.189z" fill="#05A336" p-id="3919"></path><path d="M926.72 473.941c32.853 25.003 51.883 61.355 55.893 99.414-4.01-38.059-32-58.88-64.853-83.883-32.853-25.003-64-49.152-101.717-42.837 37.632-6.315 77.824 2.304 110.677 27.306z" fill="#55C179" p-id="3920"></path><path d="M955.307 452.523l-11.179 10.325-47.872-6.059-8.277-12.8-11.179 10.326-60.416-7.68c29.525-24.32 68.608-36.864 109.568-31.659s75.605 27.136 98.133 58.112l-60.416-7.68-8.362-12.885z" fill="#05A336" p-id="3921"></path><path d="M925.867 414.89c40.96 5.206 75.605 27.137 98.133 58.113-22.528-30.976-57.173-34.987-98.133-40.192-40.96-5.206-80.043-10.582-109.568 13.738 29.525-24.234 68.608-36.864 109.568-31.658z" fill="#55C179" p-id="3922"></path><path d="M698.965 521.216l14.934 3.328 38.4-29.184 0.768-15.275L768 483.413l48.47-36.864c-37.718-6.314-77.825 2.39-110.678 27.307a143.343 143.343 0 0 0-55.893 99.413l48.469-36.864 0.597-15.189z" fill="#05A336" p-id="3923"></path><path d="M705.621 473.941a143.343 143.343 0 0 0-55.893 99.414c4.01-38.059 32-58.88 64.853-83.883 32.854-25.003 64-49.152 101.718-42.837-37.718-6.315-77.824 2.304-110.678 27.306z" fill="#55C179" p-id="3924"></path><path d="M865.536 394.496l14.933 3.328 38.4-29.184 0.768-15.275 14.934 3.328 48.469-36.864c-37.717-6.314-77.824 2.39-110.677 27.307a143.343 143.343 0 0 0-55.894 99.413l48.47-36.864 0.597-15.189z" fill="#05A336" p-id="3925"></path><path d="M872.277 347.221a143.343 143.343 0 0 0-55.893 99.414c4.01-38.059 32-58.88 64.853-83.883 32.854-25.003 64-49.152 101.718-42.837-37.718-6.315-77.824 2.304-110.678 27.306z" fill="#55C179" p-id="3926"></path><path d="M766.379 393.728l-15.104 3.413-38.998-29.61-0.768-15.446-15.104 3.414-49.237-37.462c38.315-6.4 79.019 2.39 112.384 27.734 33.365 25.344 52.736 62.293 56.747 100.864l-49.238-37.462-0.682-15.445z" fill="#05A336" p-id="3927"></path><path d="M759.552 345.77c33.365 25.345 52.736 62.294 56.747 100.865-4.096-38.571-32.512-59.819-65.878-85.163-33.365-25.344-65.024-49.92-103.253-43.52 38.315-6.4 79.019 2.39 112.384 27.819zM250.283 308.565l18.346 16.982 78.422-9.984 13.568-21.078 18.346 16.982 99.072-12.63c-48.384-39.85-112.469-60.416-179.541-51.882s-123.99 44.544-160.853 95.232l99.072-12.63 13.568-20.992z" fill="#55C179" p-id="3928"></path><path d="M297.728 246.272c-67.072 8.533-123.99 44.544-160.853 95.232 36.864-50.688 93.696-57.344 160.853-65.877 67.072-8.534 131.157-17.323 179.541 22.613-48.384-39.936-112.469-60.501-179.541-51.968z" fill="#7CE597" p-id="3929"></path><path d="M285.61 421.12l24.406 5.547 62.89-47.872 1.195-25.003 24.406 5.547 79.445-60.416c-61.867-10.326-127.573 3.84-181.419 44.8s-85.077 100.522-91.648 162.901l79.446-60.416 1.28-25.088z" fill="#55C179" p-id="3930"></path><path d="M296.619 343.637c-53.846 40.96-85.078 100.523-91.648 162.902 6.57-62.379 52.48-96.512 106.325-137.472 53.845-40.96 104.96-80.555 166.741-70.23-61.866-10.325-127.658 3.926-181.418 44.8z" fill="#7CE597" p-id="3931"></path><path d="M669.867 421.12l-24.406 5.547-62.89-47.872-1.195-25.003-24.405 5.547-79.446-60.416c61.867-10.326 127.574 3.84 181.419 44.8 53.845 40.96 85.077 100.522 91.648 162.901l-79.445-60.416-1.28-25.088z" fill="#55C179" p-id="3932"></path><path d="M658.859 343.637c53.845 40.96 85.077 100.523 91.648 162.902-6.571-62.379-52.48-96.512-106.326-137.472-53.845-40.96-104.96-80.555-166.741-70.23 61.867-10.325 127.573 3.926 181.419 44.8z" fill="#7CE597" p-id="3933"></path><path d="M558.677 213.419l24.406 5.546 62.89-47.872 1.195-25.002 24.405 5.546 79.446-60.416c-61.867-10.325-127.574 3.84-181.419 44.8s-85.077 100.523-91.648 162.902l79.445-60.416 1.28-25.088z" fill="#55C179" p-id="3934"></path><path d="M569.685 136.021c-53.845 40.96-85.077 100.523-91.648 162.902 6.571-62.379 52.48-96.512 106.326-137.472 53.845-40.96 104.96-80.555 166.741-70.23-61.781-10.41-127.573 3.84-181.419 44.8z" fill="#7CE597" p-id="3935"></path><path d="M396.117 212.139l-24.746 5.546-63.83-48.554-1.194-25.344-24.747 5.546-80.64-61.354c62.72-10.496 129.536 3.925 184.15 45.482s86.357 102.059 93.013 165.291l-80.64-61.355-1.366-25.258z" fill="#55C179" p-id="3936"></path><path d="M385.024 133.547c54.613 41.557 86.357 102.058 93.013 165.29-6.656-63.232-53.248-97.962-107.946-139.52-54.614-41.557-106.496-81.749-169.302-71.253 62.806-10.496 129.536 3.925 184.235 45.483z" fill="#7CE597" p-id="3937"></path><path d="M705.792 308.565l-18.347 16.982-78.421-9.984-13.568-21.078-18.347 16.982-99.072-12.63c48.384-39.85 112.47-60.416 179.542-51.882s123.989 44.544 160.768 95.232l-98.987-12.63-13.568-20.992z" fill="#55C179" p-id="3938"></path><path d="M657.579 246.955c67.072 8.533 123.989 44.544 160.853 95.232-36.864-50.688-93.696-57.344-160.853-65.878-67.072-8.533-131.158-17.322-179.542 22.614 48.384-39.936 112.47-60.502 179.542-51.968z" fill="#7CE597" p-id="3939"></path><path d="M478.379 297.643c43.093 201.216-69.12 333.824-126.891 386.901-16.725 15.36-11.947 43.008 9.13 51.456 23.297 9.387 54.614 14.421 88.747-0.853 40.022-17.92 54.699-60.672 67.158-99.328 12.458-38.571 19.456-78.848 20.224-119.382 1.194-58.965-10.496-118.186-33.963-172.288-6.912-15.957-14.507-32.17-24.405-46.506z" fill="#E59200" p-id="3940"></path><path d="M481.195 312.15c10.069 56.575 8.448 114.687-5.888 170.58a431.15 431.15 0 0 1-7.424 25.345 400.299 400.299 0 0 1-84.395 143.957c-7.68 8.448-15.701 16.555-23.808 24.576-6.656 6.57-14.08 12.373-16.981 21.675-4.608 15.104 3.157 31.744 17.834 37.632 5.718 2.304 11.947 4.352 18.518 5.888 33.28-39.339 64.938-78.763 87.381-126.294 30.976-65.536 44.8-138.41 37.632-210.773-3.584-36.181-12.288-71.85-24.917-105.899-0.256-0.426-0.512-0.853-0.854-1.194 1.11 4.864 2.048 9.728 2.902 14.506z" fill="#FFB814" p-id="3941"></path></svg>