<?xml version="1.0" standalone="no"?><!DOCTYPE svg PUBLIC "-//W3C//DTD SVG 1.1//EN" "http://www.w3.org/Graphics/SVG/1.1/DTD/svg11.dtd"><svg t="1606199349259" class="icon" viewBox="0 0 1024 1024" version="1.1" xmlns="http://www.w3.org/2000/svg" p-id="4556" width="32" height="32" xmlns:xlink="http://www.w3.org/1999/xlink"><defs><style type="text/css"></style></defs><path d="M511.997953 64.303538c-247.221568 0-447.633017 200.444195-447.633017 447.692369 0 247.25636 200.411449 447.700555 447.633017 447.700555 247.222591 0 447.636087-200.444195 447.636087-447.700555C959.63404 264.748756 759.220544 64.303538 511.997953 64.303538zM503.998769 324.014558c0-6.623861 5.367241-11.990079 11.990079-11.990079 6.622838 0 11.990079 5.366218 11.990079 11.990079l0 215.820394c0 6.618744-5.366218 11.990079-11.990079 11.990079-6.622838 0-11.990079-5.371334-11.990079-11.990079L503.998769 324.014558zM515.988848 711.893656c-103.57803 0-187.843202-84.495416-187.843202-188.350762 0-80.973196 51.386344-152.729473 127.874389-178.547489 6.28003-2.140757 13.074783 1.260713 15.186887 7.55814 2.115174 6.293333-1.261737 13.110599-7.53665 15.226796-66.717518 22.527063-111.543446 85.12168-111.543446 155.762553 0 90.596368 73.509201 164.306136 163.863045 164.306136s163.863045-73.709769 163.863045-164.306136c0-70.692039-44.868907-133.303029-111.648846-155.798369-6.275937-2.113127-9.655917-8.931416-7.547907-15.223726 2.115174-6.293333 8.91402-9.682523 15.182794-7.568373 76.5607 25.787316 127.995139 97.558943 127.995139 178.590468C703.83205 627.39824 619.565854 711.893656 515.988848 711.893656z" p-id="4557"></path></svg>